<?xml version="1.0" standalone="no"?>
<!DOCTYPE svg PUBLIC "-//W3C//DTD SVG 20010904//EN"
 "http://www.w3.org/TR/2001/REC-SVG-20010904/DTD/svg10.dtd">
<svg version="1.0" xmlns="http://www.w3.org/2000/svg"
 width="4096.000000pt" height="4096.000000pt" viewBox="0 0 4096.000000 4096.000000"
 preserveAspectRatio="xMidYMid meet">

<g transform="translate(0.000000,4096.000000) scale(0.100000,-0.100000)"
fill="#000000" stroke="none">
<path d="M27380 37789 c-516 -47 -961 -142 -1475 -313 -1096 -366 -2139 -980
-2997 -1763 -674 -616 -1269 -1417 -1724 -2323 -622 -1239 -887 -2513 -762
-3672 l11 -106 45 -7 c87 -13 573 -7 747 10 989 94 1950 452 2889 1078 1121
747 2009 1776 2655 3077 443 891 698 1757 797 2712 31 301 30 985 -3 1266 l-6
52 -46 -1 c-25 -1 -84 -5 -131 -10z"/>
<path d="M26615 29223 c-592 -31 -1303 -168 -2015 -389 -525 -162 -803 -262
-1763 -638 -858 -336 -1164 -444 -1482 -525 -508 -128 -814 -127 -1330 4 -359
91 -668 200 -1460 512 -1174 463 -1708 643 -2305 777 -547 122 -933 162 -1465
153 -423 -8 -721 -34 -1143 -103 -2173 -350 -4170 -1583 -5542 -3419 -1168
-1563 -1861 -3515 -2049 -5775 -40 -478 -46 -643 -46 -1285 0 -696 13 -996 71
-1615 192 -2076 767 -4323 1639 -6410 404 -965 865 -1888 1364 -2725 317 -534
613 -978 1164 -1750 1329 -1860 2358 -2882 3432 -3405 519 -253 1014 -371
1555 -371 538 0 1078 93 1665 287 282 93 495 178 1230 489 1021 431 1698 605
2583 665 199 13 717 13 914 0 695 -48 1287 -181 1983 -447 94 -36 386 -158
650 -271 539 -230 736 -309 969 -388 521 -178 943 -259 1478 -286 1145 -56
2123 294 3113 1117 613 509 1256 1246 2016 2310 955 1337 1449 2140 1999 3250
330 667 578 1240 837 1935 85 227 273 778 273 797 0 5 -21 17 -48 27 -80 32
-445 211 -574 281 -1030 563 -1968 1372 -2649 2285 -775 1039 -1262 2261
-1428 3590 -91 722 -89 1466 5 2150 227 1653 997 3163 2254 4420 423 423 833
763 1305 1079 110 74 199 138 197 143 -1 5 -45 68 -97 141 -1039 1452 -2495
2478 -4265 3007 -650 194 -1298 310 -1975 355 -126 8 -288 20 -360 25 -119 9
-557 11 -700 3z"/>
</g>
</svg>
