<?xml version="1.0" standalone="no"?>
<!DOCTYPE svg PUBLIC "-//W3C//DTD SVG 20010904//EN"
 "http://www.w3.org/TR/2001/REC-SVG-20010904/DTD/svg10.dtd">
<svg version="1.0" xmlns="http://www.w3.org/2000/svg"
 width="4096.000000pt" height="4096.000000pt" viewBox="0 0 4096.000000 4096.000000"
 preserveAspectRatio="xMidYMid meet">

<g transform="translate(0.000000,4096.000000) scale(0.100000,-0.100000)"
fill="#000000" stroke="none">
<path d="M19230 39243 c-3262 -46 -5808 -349 -7910 -939 -3165 -890 -5492
-2485 -7067 -4844 -1511 -2264 -2342 -5232 -2513 -8975 -40 -885 -40 -1979 0
-2865 240 -5265 1846 -9055 4855 -11456 996 -794 2171 -1451 3460 -1935 l180
-67 5 -2034 c6 -2029 6 -2033 27 -2166 98 -596 334 -1063 743 -1472 416 -416
927 -667 1520 -746 151 -20 462 -22 605 -5 594 73 1107 313 1519 711 60 58
961 1066 2003 2241 l1894 2137 1752 5 c1633 5 1935 9 2687 37 3232 119 5701
521 7777 1266 2313 830 4112 2089 5464 3824 727 933 1346 2057 1809 3285 581
1542 963 3377 1119 5380 109 1394 122 2912 36 4325 -214 3510 -1038 6333
-2478 8495 -1649 2474 -4102 4102 -7490 4970 -2003 513 -4251 766 -7342 825
-437 8 -2146 10 -2655 3z m1806 -5123 c2020 -115 3895 -787 5509 -1975 433
-319 774 -613 1175 -1015 272 -271 412 -424 634 -690 1308 -1569 2119 -3503
2315 -5520 45 -454 65 -1013 42 -1155 -47 -290 -228 -528 -495 -650 -101 -46
-185 -66 -312 -72 -398 -20 -743 231 -860 624 -24 82 -26 108 -34 383 -9 313
-12 367 -36 635 -150 1687 -828 3329 -1919 4644 -387 467 -875 941 -1341 1302
-1114 864 -2396 1430 -3775 1669 -428 74 -755 105 -1253 120 -260 8 -334 14
-403 30 -312 74 -558 320 -633 632 -27 113 -27 283 0 396 74 309 319 556 627
631 66 17 117 20 329 20 139 1 332 -4 430 -9z m-6393 -1705 c108 -19 213 -56
301 -107 76 -45 197 -155 252 -229 58 -79 1849 -3671 1884 -3779 178 -544 88
-1196 -273 -1971 -257 -552 -751 -1259 -1221 -1746 l-89 -93 68 -167 c251
-621 565 -1218 933 -1778 376 -573 888 -1204 1259 -1553 896 -843 1963 -1526
3128 -2003 l190 -78 84 92 c691 758 1626 1305 2628 1537 253 58 419 82 518 75
228 -17 430 -62 621 -138 138 -56 3595 -1784 3689 -1844 194 -125 343 -362
374 -593 5 -41 13 -473 16 -965 l7 -890 -27 -130 c-104 -505 -275 -978 -507
-1408 -503 -933 -1265 -1676 -2208 -2152 -560 -282 -1105 -444 -1755 -522
-190 -22 -876 -26 -1045 -5 -912 112 -1948 449 -3215 1045 -2087 981 -4570
2631 -6040 4013 -845 795 -1774 1936 -2696 3314 -1657 2474 -2751 4869 -2953
6465 -52 410 -43 911 25 1349 114 740 377 1421 794 2051 496 751 1191 1365
1997 1763 428 211 812 339 1358 451 25 5 434 9 931 10 744 1 900 -1 972 -14z
m6437 -1720 c1272 -114 2481 -577 3495 -1338 353 -265 782 -664 1056 -982 555
-643 983 -1369 1264 -2140 264 -724 405 -1501 408 -2240 1 -209 -1 -237 -21
-310 -142 -507 -653 -769 -1143 -586 -205 77 -403 275 -480 480 -43 117 -51
164 -60 396 -16 414 -53 715 -125 1039 -277 1243 -1015 2342 -2067 3079 -390
273 -874 514 -1337 666 -470 155 -1043 250 -1505 251 -71 0 -161 5 -200 10
-155 22 -317 94 -439 195 -112 93 -218 258 -268 415 -20 66 -23 95 -23 240 0
159 2 168 32 260 103 303 356 522 671 581 68 12 538 2 742 -16z m-240 -3406
c1063 -114 2009 -717 2565 -1634 147 -243 288 -567 360 -831 91 -332 119 -530
119 -854 l1 -245 -34 -97 c-79 -231 -231 -402 -446 -504 -139 -66 -197 -78
-365 -78 -121 -1 -158 3 -223 22 -266 76 -485 277 -575 525 -40 111 -50 170
-62 374 -14 262 -65 461 -170 678 -217 443 -633 782 -1106 899 -136 34 -220
45 -413 56 -194 11 -274 30 -401 95 -202 105 -341 267 -419 488 -36 101 -36
103 -36 267 0 145 3 174 23 240 49 156 149 312 258 406 122 103 288 181 439
204 69 10 345 4 485 -11z"/>
</g>
</svg>
